<?xml version="1.0" encoding="UTF-8"?>
<svg width="11px" height="10px" viewBox="0 0 11 10" version="1.1" xmlns="http://www.w3.org/2000/svg" xmlns:xlink="http://www.w3.org/1999/xlink">
    <!-- Generator: Sketch 51.2 (57519) - http://www.bohemiancoding.com/sketch -->
    <title></title>
    <desc>Created with Sketch.</desc>
    <defs></defs>
    <g id="Desktop" stroke="none" stroke-width="1" fill="none" fill-rule="evenodd">
        <path d="M6.06045941,8.06772446 L6.06045941,6.94711616 C6.06045941,6.89206846 6.0417828,6.8458684 6.004429,6.80851461 C5.9670752,6.77116081 5.92284111,6.75248419 5.87172538,6.75248419 L4.7393212,6.75248419 C4.68820548,6.75248419 4.64397138,6.77116081 4.60661759,6.80851461 C4.56926379,6.8458684 4.55058717,6.89206846 4.55058717,6.94711616 L4.55058717,8.06772446 C4.55058717,8.12277217 4.56926379,8.16897222 4.60661759,8.20632602 C4.64397138,8.24367981 4.68820548,8.26235643 4.7393212,8.26235643 L5.87172538,8.26235643 C5.92284111,8.26235643 5.9670752,8.24367981 6.004429,8.20632602 C6.0417828,8.16897222 6.06045941,8.12277217 6.06045941,8.06772446 Z M5.99623742,5.96674773 L6.10240031,3.25959398 C6.10240031,3.21241024 6.08274071,3.175057 6.04342093,3.14753315 C5.9923052,3.10428138 5.94512217,3.08265583 5.9018704,3.08265583 L4.60432395,3.08265583 C4.56107218,3.08265583 4.51388914,3.10428138 4.46277342,3.14753315 C4.42345364,3.175057 4.40379404,3.21634216 4.40379404,3.27138986 L4.50405899,5.96674773 C4.50405899,6.00606751 4.52371859,6.03850585 4.56303838,6.06406371 C4.60235816,6.08962157 4.6495412,6.10240031 4.7045889,6.10240031 L5.79570751,6.10240031 C5.85075521,6.10240031 5.89695527,6.08962157 5.93430906,6.06406371 C5.97166286,6.03850585 5.99230544,6.00606751 5.99623742,5.96674773 Z M5.95110234,0.395161876 L10.4807191,8.6994592 C10.6183383,8.94717386 10.6144064,9.1948848 10.4689232,9.44259945 C10.4020795,9.55662683 10.3106624,9.64706098 10.194669,9.71390462 C10.0786757,9.78074825 9.95383723,9.81416957 9.82014995,9.81416957 L0.760916505,9.81416957 C0.627229232,9.81416957 0.502390783,9.78074825 0.386397414,9.71390462 C0.270404045,9.64706098 0.178986913,9.55662683 0.112143276,9.44259945 C-0.0333399328,9.1948848 -0.0372718524,8.94717386 0.100347399,8.6994592 L4.62996412,0.395161876 C4.69680776,0.273270538 4.78920787,0.176938507 4.90716723,0.106162892 C5.02512659,0.0353872768 5.15291398,0 5.29053323,0 C5.42815248,0 5.55593987,0.0353872768 5.67389923,0.106162892 C5.79185859,0.176938507 5.8842587,0.273270538 5.95110234,0.395161876 Z" id="" fill="#595959"></path>
    </g>
</svg>